# MagicaVoxel @ Ephtracy

# group
g cannon big

# material
mtllib cannon big.mtl
usemtl palette

# normals
vn -1 0 0
vn 1 0 0
vn 0 0 1
vn 0 0 -1
vn 0 -1 0
vn 0 1 0

# texcoords
vt 0.568359 0.5
vt 0.642578 0.5
vt 0.646484 0.5
vt 0.787109 0.5
vt 0.841797 0.5

# verts
v -4 0 10
v -4 0 9
v -4 0 1
v -4 0 -0
v -4 0 -5
v -4 0 -6
v -4 3 10
v -4 3 9
v -4 3 1
v -4 3 -0
v -4 3 -4
v -4 3 -5
v -4 3 -6
v -4 3 -10
v -4 4 10
v -4 4 9
v -4 4 3
v -4 4 2
v -4 5 10
v -4 5 9
v -4 5 7
v -4 5 6
v -4 5 3
v -4 5 2
v -4 5 -0
v -4 5 -4
v -4 5 -5
v -4 6 9
v -4 6 8
v -4 6 7
v -4 6 6
v -4 6 5
v -4 6 3
v -4 6 2
v -4 6 -0
v -4 6 -2
v -4 6 -4
v -4 6 -5
v -4 7 8
v -4 7 5
v -4 7 -0
v -4 7 -2
v -4 7 -4
v -4 8 -2
v -4 8 -5
v -4 8 -6
v -4 8 -9
v -4 8 -10
v -4 11 10
v -4 11 -2
v -4 11 -5
v -4 11 -6
v -4 11 -9
v -4 11 -10
v -4 14 -2
v -4 14 -5
v 1 11 -2
v 1 11 -5
v 1 14 -2
v 1 14 -5
v 3 1 10
v 3 1 9
v 3 1 1
v 3 1 -0
v 3 1 -5
v 3 1 -6
v 3 2 10
v 3 2 9
v 3 3 10
v 3 3 9
v 3 3 1
v 3 3 -0
v 3 3 -5
v 3 3 -6
v 3 4 9
v 3 4 -10
v 3 5 3
v 3 5 -3
v 3 6 4
v 3 6 3
v 3 6 2
v 3 6 -2
v 3 6 -3
v 3 6 -5
v 3 7 9
v 3 7 4
v 3 7 2
v 3 7 -2
v 3 7 -4
v 3 8 9
v 3 8 4
v 3 8 -4
v 3 8 -5
v 3 8 -6
v 3 8 -9
v 3 8 -10
v 3 10 9
v 3 10 -5
v 3 10 -6
v 3 10 -9
v 3 10 -10
v -3 1 10
v -3 1 9
v -3 1 1
v -3 1 -0
v -3 1 -5
v -3 1 -6
v -3 3 10
v -3 3 9
v -3 3 1
v -3 3 -0
v -3 3 -5
v -3 3 -6
v -3 4 9
v -3 4 3
v -3 4 2
v -3 4 -4
v -3 4 -5
v -3 4 -10
v -3 5 9
v -3 5 7
v -3 5 6
v -3 5 3
v -3 5 2
v -3 5 -0
v -3 5 -4
v -3 5 -5
v -3 6 9
v -3 6 8
v -3 6 7
v -3 6 6
v -3 6 5
v -3 6 3
v -3 6 2
v -3 6 -0
v -3 6 -2
v -3 6 -4
v -3 6 -5
v -3 7 8
v -3 7 5
v -3 7 -0
v -3 7 -2
v -3 7 -4
v -3 8 -2
v -3 8 -5
v -3 8 -6
v -3 8 -9
v -3 8 -10
v -3 10 9
v -3 10 -5
v -3 10 -6
v -3 10 -9
v -3 10 -10
v -1 11 -2
v -1 11 -5
v -1 14 -2
v -1 14 -5
v 4 0 10
v 4 0 9
v 4 0 1
v 4 0 -0
v 4 0 -5
v 4 0 -6
v 4 1 10
v 4 1 9
v 4 2 10
v 4 2 9
v 4 3 10
v 4 3 9
v 4 3 1
v 4 3 -0
v 4 3 -5
v 4 3 -6
v 4 3 -10
v 4 5 3
v 4 5 -3
v 4 6 10
v 4 6 9
v 4 6 4
v 4 6 3
v 4 6 2
v 4 6 -2
v 4 6 -3
v 4 6 -5
v 4 7 10
v 4 7 9
v 4 7 4
v 4 7 2
v 4 7 -2
v 4 7 -4
v 4 8 9
v 4 8 4
v 4 8 -4
v 4 8 -5
v 4 8 -6
v 4 8 -9
v 4 8 -10
v 4 11 10
v 4 11 -2
v 4 11 -5
v 4 11 -6
v 4 11 -9
v 4 11 -10
v 4 14 -2
v 4 14 -5
v -4 0 10
v -4 3 10
v -4 4 10
v -4 5 10
v -4 11 10
v -3 1 10
v -3 3 10
v -2 3 10
v -2 4 10
v -2 5 10
v 1 3 10
v 1 4 10
v 3 1 10
v 3 2 10
v 3 3 10
v 3 6 10
v 3 7 10
v 4 0 10
v 4 1 10
v 4 2 10
v 4 3 10
v 4 6 10
v 4 7 10
v 4 11 10
v -4 0 1
v -4 3 1
v -3 1 1
v -3 3 1
v 3 1 1
v 3 3 1
v 4 0 1
v 4 3 1
v -4 11 -2
v -4 14 -2
v -1 11 -2
v -1 14 -2
v 1 11 -2
v 1 14 -2
v 4 11 -2
v 4 14 -2
v -4 0 -5
v -4 3 -5
v -3 1 -5
v -3 3 -5
v 3 1 -5
v 3 3 -5
v 4 0 -5
v 4 3 -5
v -4 0 9
v -4 3 9
v -3 1 9
v -3 3 9
v -3 4 9
v -3 5 9
v -3 6 9
v -3 10 9
v -2 4 9
v -2 5 9
v 3 1 9
v 3 2 9
v 3 3 9
v 3 4 9
v 3 7 9
v 3 8 9
v 3 10 9
v 4 0 9
v 4 1 9
v 4 2 9
v 4 3 9
v -4 0 -0
v -4 3 -0
v -3 1 -0
v -3 3 -0
v 3 1 -0
v 3 3 -0
v 4 0 -0
v 4 3 -0
v -4 11 -5
v -4 14 -5
v -3 12 -5
v -3 13 -5
v -2 12 -5
v -2 13 -5
v -1 11 -5
v -1 14 -5
v 1 11 -5
v 1 14 -5
v 2 12 -5
v 2 13 -5
v 3 12 -5
v 3 13 -5
v 4 11 -5
v 4 14 -5
v -4 0 -6
v -4 3 -6
v -3 1 -6
v -3 3 -6
v 3 1 -6
v 3 3 -6
v 4 0 -6
v 4 3 -6
v -4 3 -10
v -4 8 -10
v -4 11 -10
v -3 4 -10
v -3 8 -10
v -3 10 -10
v 3 4 -10
v 3 8 -10
v 3 10 -10
v 4 3 -10
v 4 8 -10
v 4 11 -10
v -4 0 10
v 4 0 10
v -4 0 9
v 4 0 9
v -4 0 1
v 4 0 1
v -4 0 -0
v 4 0 -0
v -4 0 -5
v 4 0 -5
v -4 0 -6
v 4 0 -6
v -3 3 10
v -2 3 10
v 1 3 10
v 3 3 10
v -4 3 9
v -3 3 9
v -2 3 9
v 1 3 9
v 3 3 9
v 4 3 9
v -4 3 1
v -3 3 1
v 3 3 1
v 4 3 1
v -4 3 -0
v -3 3 -0
v 3 3 -0
v 4 3 -0
v -4 3 -4
v -2 3 -4
v -4 3 -5
v -3 3 -5
v -2 3 -5
v 3 3 -5
v 4 3 -5
v -4 3 -6
v -3 3 -6
v 3 3 -6
v 4 3 -6
v -4 3 -10
v 4 3 -10
v -3 10 9
v 3 10 9
v -3 10 -5
v 3 10 -5
v -3 10 -6
v 3 10 -6
v -3 10 -9
v 3 10 -9
v -3 10 -10
v 3 10 -10
v -3 1 10
v 3 1 10
v -3 1 9
v 3 1 9
v -3 1 1
v 3 1 1
v -3 1 -0
v 3 1 -0
v -3 1 -5
v 3 1 -5
v -3 1 -6
v 3 1 -6
v -3 4 9
v -2 4 9
v 3 4 9
v -3 4 3
v -3 4 2
v -3 4 -4
v -2 4 -4
v -3 4 -5
v -2 4 -5
v -3 4 -10
v 3 4 -10
v -4 11 10
v 4 11 10
v -4 11 -2
v -1 11 -2
v 1 11 -2
v 4 11 -2
v -4 11 -5
v -1 11 -5
v 1 11 -5
v 4 11 -5
v -4 11 -6
v 4 11 -6
v -4 11 -9
v 4 11 -9
v -4 11 -10
v 4 11 -10
v -4 14 -2
v -1 14 -2
v 1 14 -2
v 4 14 -2
v -4 14 -5
v -1 14 -5
v 1 14 -5
v 4 14 -5

# faces
f 7/4/1 2/4/1 1/4/1
f 8/4/1 2/4/1 7/4/1
f 9/4/1 4/4/1 3/4/1
f 10/4/1 4/4/1 9/4/1
f 12/4/1 6/4/1 5/4/1
f 13/4/1 6/4/1 12/4/1
f 15/1/1 11/1/1 10/1/1
f 15/1/1 8/1/1 7/1/1
f 15/1/1 9/1/1 8/1/1
f 15/1/1 10/1/1 9/1/1
f 16/1/1 11/1/1 15/1/1
f 17/1/1 11/1/1 16/1/1
f 18/1/1 11/1/1 17/1/1
f 19/2/1 16/2/1 15/2/1
f 20/1/1 17/1/1 16/1/1
f 20/2/1 16/2/1 19/2/1
f 21/1/1 17/1/1 20/1/1
f 22/1/1 17/1/1 21/1/1
f 23/2/1 18/2/1 17/2/1
f 23/1/1 17/1/1 22/1/1
f 24/1/1 11/1/1 18/1/1
f 24/2/1 18/2/1 23/2/1
f 25/1/1 11/1/1 24/1/1
f 26/2/1 12/2/1 11/2/1
f 26/1/1 11/1/1 25/1/1
f 27/1/1 14/1/1 13/1/1
f 27/2/1 12/2/1 26/2/1
f 27/1/1 13/1/1 12/1/1
f 28/1/1 20/1/1 19/1/1
f 28/2/1 21/2/1 20/2/1
f 29/2/1 21/2/1 28/2/1
f 30/1/1 22/1/1 21/1/1
f 30/2/1 21/2/1 29/2/1
f 31/2/1 23/2/1 22/2/1
f 31/1/1 22/1/1 30/1/1
f 32/2/1 23/2/1 31/2/1
f 33/1/1 24/1/1 23/1/1
f 33/2/1 23/2/1 32/2/1
f 34/2/1 25/2/1 24/2/1
f 34/1/1 24/1/1 33/1/1
f 35/1/1 26/1/1 25/1/1
f 35/2/1 25/2/1 34/2/1
f 35/1/1 27/1/1 26/1/1
f 36/1/1 27/1/1 35/1/1
f 37/1/1 27/1/1 36/1/1
f 38/1/1 14/1/1 27/1/1
f 38/1/1 27/1/1 37/1/1
f 39/2/1 32/2/1 31/2/1
f 39/2/1 30/2/1 29/2/1
f 39/1/1 29/1/1 28/1/1
f 39/2/1 31/2/1 30/2/1
f 40/1/1 34/1/1 33/1/1
f 40/2/1 32/2/1 39/2/1
f 40/1/1 33/1/1 32/1/1
f 40/1/1 35/1/1 34/1/1
f 41/2/1 36/2/1 35/2/1
f 41/1/1 35/1/1 40/1/1
f 42/1/1 37/1/1 36/1/1
f 42/2/1 36/2/1 41/2/1
f 43/2/1 38/2/1 37/2/1
f 43/1/1 37/1/1 42/1/1
f 44/1/1 42/1/1 41/1/1
f 44/1/1 40/1/1 39/1/1
f 44/2/1 43/2/1 42/2/1
f 44/1/1 41/1/1 40/1/1
f 45/1/1 14/1/1 38/1/1
f 45/2/1 43/2/1 44/2/1
f 45/2/1 38/2/1 43/2/1
f 46/1/1 14/1/1 45/1/1
f 47/1/1 14/1/1 46/1/1
f 48/1/1 14/1/1 47/1/1
f 49/1/1 39/1/1 28/1/1
f 49/1/1 44/1/1 39/1/1
f 49/1/1 28/1/1 19/1/1
f 49/1/1 45/1/1 44/1/1
f 50/1/1 45/1/1 49/1/1
f 51/2/1 46/2/1 45/2/1
f 51/1/1 45/1/1 50/1/1
f 52/1/1 47/1/1 46/1/1
f 52/2/1 46/2/1 51/2/1
f 53/2/1 48/2/1 47/2/1
f 53/1/1 47/1/1 52/1/1
f 54/2/1 48/2/1 53/2/1
f 55/3/1 51/3/1 50/3/1
f 56/3/1 51/3/1 55/3/1
f 59/3/1 58/3/1 57/3/1
f 60/3/1 58/3/1 59/3/1
f 67/2/1 62/2/1 61/2/1
f 68/2/1 62/2/1 67/2/1
f 69/4/1 68/4/1 67/4/1
f 70/4/1 68/4/1 69/4/1
f 71/4/1 64/4/1 63/4/1
f 72/4/1 64/4/1 71/4/1
f 73/4/1 66/4/1 65/4/1
f 74/4/1 66/4/1 73/4/1
f 77/1/1 76/1/1 75/1/1
f 78/1/1 76/1/1 77/1/1
f 79/1/1 77/1/1 75/1/1
f 80/2/1 78/2/1 77/2/1
f 80/1/1 77/1/1 79/1/1
f 81/2/1 78/2/1 80/2/1
f 82/2/1 78/2/1 81/2/1
f 83/1/1 76/1/1 78/1/1
f 83/2/1 78/2/1 82/2/1
f 84/1/1 76/1/1 83/1/1
f 85/1/1 79/1/1 75/1/1
f 86/2/1 80/2/1 79/2/1
f 86/1/1 79/1/1 85/1/1
f 86/2/1 81/2/1 80/2/1
f 87/1/1 82/1/1 81/1/1
f 87/2/1 81/2/1 86/2/1
f 88/2/1 84/2/1 83/2/1
f 88/1/1 82/1/1 87/1/1
f 88/2/1 83/2/1 82/2/1
f 89/2/1 84/2/1 88/2/1
f 90/2/1 86/2/1 85/2/1
f 91/1/1 87/1/1 86/1/1
f 91/2/1 86/2/1 90/2/1
f 91/1/1 88/1/1 87/1/1
f 91/1/1 89/1/1 88/1/1
f 92/2/1 84/2/1 89/2/1
f 92/1/1 89/1/1 91/1/1
f 93/1/1 76/1/1 84/1/1
f 93/2/1 84/2/1 92/2/1
f 94/1/1 76/1/1 93/1/1
f 95/1/1 76/1/1 94/1/1
f 96/1/1 76/1/1 95/1/1
f 97/1/1 91/1/1 90/1/1
f 97/1/1 92/1/1 91/1/1
f 97/1/1 93/1/1 92/1/1
f 98/2/1 94/2/1 93/2/1
f 98/1/1 93/1/1 97/1/1
f 99/1/1 95/1/1 94/1/1
f 99/2/1 94/2/1 98/2/1
f 100/2/1 96/2/1 95/2/1
f 100/1/1 95/1/1 99/1/1
f 101/2/1 96/2/1 100/2/1
f 102/4/2 103/4/2 108/4/2
f 108/4/2 103/4/2 109/4/2
f 104/4/2 105/4/2 110/4/2
f 110/4/2 105/4/2 111/4/2
f 106/4/2 107/4/2 112/4/2
f 112/4/2 107/4/2 113/4/2
f 114/1/2 115/1/2 120/1/2
f 120/1/2 115/1/2 121/1/2
f 121/1/2 115/1/2 122/1/2
f 115/2/2 116/2/2 123/2/2
f 122/1/2 115/1/2 123/1/2
f 116/1/2 117/1/2 124/1/2
f 123/2/2 116/2/2 124/2/2
f 124/1/2 117/1/2 125/1/2
f 117/2/2 118/2/2 126/2/2
f 125/1/2 117/1/2 126/1/2
f 118/1/2 119/1/2 127/1/2
f 126/2/2 118/2/2 127/2/2
f 120/2/2 121/2/2 128/2/2
f 128/2/2 121/2/2 129/2/2
f 121/1/2 122/1/2 130/1/2
f 129/2/2 121/2/2 130/2/2
f 122/2/2 123/2/2 131/2/2
f 130/1/2 122/1/2 131/1/2
f 131/2/2 123/2/2 132/2/2
f 123/1/2 124/1/2 133/1/2
f 132/2/2 123/2/2 133/2/2
f 124/2/2 125/2/2 134/2/2
f 133/1/2 124/1/2 134/1/2
f 125/1/2 126/1/2 135/1/2
f 134/2/2 125/2/2 135/2/2
f 126/1/2 127/1/2 135/1/2
f 135/1/2 127/1/2 136/1/2
f 136/1/2 127/1/2 137/1/2
f 127/1/2 119/1/2 138/1/2
f 137/1/2 127/1/2 138/1/2
f 128/1/2 129/1/2 139/1/2
f 129/2/2 130/2/2 139/2/2
f 131/2/2 132/2/2 139/2/2
f 130/2/2 131/2/2 139/2/2
f 132/1/2 133/1/2 140/1/2
f 139/2/2 132/2/2 140/2/2
f 133/1/2 134/1/2 140/1/2
f 134/1/2 135/1/2 140/1/2
f 135/2/2 136/2/2 141/2/2
f 140/1/2 135/1/2 141/1/2
f 136/1/2 137/1/2 142/1/2
f 141/2/2 136/2/2 142/2/2
f 137/2/2 138/2/2 143/2/2
f 142/1/2 137/1/2 143/1/2
f 141/1/2 142/1/2 144/1/2
f 140/1/2 141/1/2 144/1/2
f 142/2/2 143/2/2 144/2/2
f 139/1/2 140/1/2 144/1/2
f 138/1/2 119/1/2 145/1/2
f 144/2/2 143/2/2 145/2/2
f 143/2/2 138/2/2 145/2/2
f 145/1/2 119/1/2 146/1/2
f 146/1/2 119/1/2 147/1/2
f 147/1/2 119/1/2 148/1/2
f 128/1/2 139/1/2 149/1/2
f 139/1/2 144/1/2 149/1/2
f 144/1/2 145/1/2 149/1/2
f 145/2/2 146/2/2 150/2/2
f 149/1/2 145/1/2 150/1/2
f 146/1/2 147/1/2 151/1/2
f 150/2/2 146/2/2 151/2/2
f 147/2/2 148/2/2 152/2/2
f 151/1/2 147/1/2 152/1/2
f 152/2/2 148/2/2 153/2/2
f 154/3/2 155/3/2 156/3/2
f 156/3/2 155/3/2 157/3/2
f 158/4/2 159/4/2 164/4/2
f 164/4/2 159/4/2 165/4/2
f 164/2/2 165/2/2 166/2/2
f 166/2/2 165/2/2 167/2/2
f 166/4/2 167/4/2 168/4/2
f 168/4/2 167/4/2 169/4/2
f 160/4/2 161/4/2 170/4/2
f 170/4/2 161/4/2 171/4/2
f 162/4/2 163/4/2 172/4/2
f 172/4/2 163/4/2 173/4/2
f 170/1/2 171/1/2 175/1/2
f 173/1/2 174/1/2 175/1/2
f 172/1/2 173/1/2 175/1/2
f 171/1/2 172/1/2 175/1/2
f 168/1/2 169/1/2 175/1/2
f 169/1/2 170/1/2 175/1/2
f 175/1/2 174/1/2 176/1/2
f 168/1/2 175/1/2 177/1/2
f 177/1/2 175/1/2 178/1/2
f 178/1/2 175/1/2 179/1/2
f 175/2/2 176/2/2 180/2/2
f 179/1/2 175/1/2 180/1/2
f 180/2/2 176/2/2 181/2/2
f 181/2/2 176/2/2 182/2/2
f 176/1/2 174/1/2 183/1/2
f 182/2/2 176/2/2 183/2/2
f 183/1/2 174/1/2 184/1/2
f 177/2/2 178/2/2 185/2/2
f 178/1/2 179/1/2 186/1/2
f 185/2/2 178/2/2 186/2/2
f 179/2/2 180/2/2 187/2/2
f 186/1/2 179/1/2 187/1/2
f 180/2/2 181/2/2 187/2/2
f 181/1/2 182/1/2 188/1/2
f 187/2/2 181/2/2 188/2/2
f 183/2/2 184/2/2 189/2/2
f 188/1/2 182/1/2 189/1/2
f 182/2/2 183/2/2 189/2/2
f 189/2/2 184/2/2 190/2/2
f 186/2/2 187/2/2 191/2/2
f 185/1/2 186/1/2 191/1/2
f 189/1/2 190/1/2 192/1/2
f 191/2/2 187/2/2 192/2/2
f 187/1/2 188/1/2 192/1/2
f 188/1/2 189/1/2 192/1/2
f 190/2/2 184/2/2 193/2/2
f 192/1/2 190/1/2 193/1/2
f 184/1/2 174/1/2 194/1/2
f 193/2/2 184/2/2 194/2/2
f 194/1/2 174/1/2 195/1/2
f 195/1/2 174/1/2 196/1/2
f 196/1/2 174/1/2 197/1/2
f 191/1/2 192/1/2 198/1/2
f 192/1/2 193/1/2 198/1/2
f 185/1/2 191/1/2 198/1/2
f 193/1/2 194/1/2 198/1/2
f 198/1/2 194/1/2 199/1/2
f 194/2/2 195/2/2 200/2/2
f 199/1/2 194/1/2 200/1/2
f 195/1/2 196/1/2 201/1/2
f 200/2/2 195/2/2 201/2/2
f 196/2/2 197/2/2 202/2/2
f 201/1/2 196/1/2 202/1/2
f 202/2/2 197/2/2 203/2/2
f 199/3/2 200/3/2 204/3/2
f 204/3/2 200/3/2 205/3/2
f 211/4/3 207/4/3 206/4/3
f 212/1/3 208/1/3 207/1/3
f 212/4/3 207/4/3 211/4/3
f 213/1/3 208/1/3 212/1/3
f 214/2/3 209/2/3 208/2/3
f 214/1/3 208/1/3 213/1/3
f 215/1/3 210/1/3 209/1/3
f 215/2/3 209/2/3 214/2/3
f 216/2/3 214/2/3 213/2/3
f 217/1/3 215/1/3 214/1/3
f 217/2/3 214/2/3 216/2/3
f 218/4/3 211/4/3 206/4/3
f 220/1/3 217/1/3 216/1/3
f 221/1/3 210/1/3 215/1/3
f 221/1/3 215/1/3 217/1/3
f 221/1/3 217/1/3 220/1/3
f 222/1/3 210/1/3 221/1/3
f 223/4/3 218/4/3 206/4/3
f 224/2/3 219/2/3 218/2/3
f 224/4/3 218/4/3 223/4/3
f 225/4/3 220/4/3 219/4/3
f 225/2/3 219/2/3 224/2/3
f 226/1/3 221/1/3 220/1/3
f 226/4/3 220/4/3 225/4/3
f 227/2/3 222/2/3 221/2/3
f 227/1/3 221/1/3 226/1/3
f 228/1/3 210/1/3 222/1/3
f 228/2/3 222/2/3 227/2/3
f 229/1/3 210/1/3 228/1/3
f 232/4/3 231/4/3 230/4/3
f 233/4/3 231/4/3 232/4/3
f 234/4/3 232/4/3 230/4/3
f 236/4/3 234/4/3 230/4/3
f 236/4/3 235/4/3 234/4/3
f 237/4/3 235/4/3 236/4/3
f 240/3/3 239/3/3 238/3/3
f 241/3/3 239/3/3 240/3/3
f 244/3/3 243/3/3 242/3/3
f 245/3/3 243/3/3 244/3/3
f 248/4/3 247/4/3 246/4/3
f 249/4/3 247/4/3 248/4/3
f 250/4/3 248/4/3 246/4/3
f 252/4/3 250/4/3 246/4/3
f 252/4/3 251/4/3 250/4/3
f 253/4/3 251/4/3 252/4/3
f 254/4/4 255/4/4 256/4/4
f 256/4/4 255/4/4 257/4/4
f 258/2/4 259/2/4 262/2/4
f 260/1/4 261/1/4 263/1/4
f 262/2/4 259/2/4 263/2/4
f 259/1/4 260/1/4 263/1/4
f 254/4/4 256/4/4 264/4/4
f 262/1/4 263/1/4 267/1/4
f 263/1/4 261/1/4 268/1/4
f 267/1/4 263/1/4 268/1/4
f 268/1/4 261/1/4 269/1/4
f 269/1/4 261/1/4 270/1/4
f 254/4/4 264/4/4 271/4/4
f 264/2/4 265/2/4 272/2/4
f 271/4/4 264/4/4 272/4/4
f 265/4/4 266/4/4 273/4/4
f 272/2/4 265/2/4 273/2/4
f 273/4/4 266/4/4 274/4/4
f 275/4/4 276/4/4 277/4/4
f 277/4/4 276/4/4 278/4/4
f 275/4/4 277/4/4 279/4/4
f 275/4/4 279/4/4 281/4/4
f 279/4/4 280/4/4 281/4/4
f 281/4/4 280/4/4 282/4/4
f 283/3/4 284/3/4 285/3/4
f 285/3/4 284/3/4 286/3/4
f 283/3/4 285/3/4 287/3/4
f 285/5/4 286/5/4 287/5/4
f 286/3/4 284/3/4 288/3/4
f 287/5/4 286/5/4 288/5/4
f 283/3/4 287/3/4 289/3/4
f 287/3/4 288/3/4 289/3/4
f 288/3/4 284/3/4 290/3/4
f 289/3/4 288/3/4 290/3/4
f 291/3/4 292/3/4 293/3/4
f 293/3/4 292/3/4 294/3/4
f 291/3/4 293/3/4 295/3/4
f 293/5/4 294/5/4 295/5/4
f 294/3/4 292/3/4 296/3/4
f 295/5/4 294/5/4 296/5/4
f 291/3/4 295/3/4 297/3/4
f 295/3/4 296/3/4 297/3/4
f 296/3/4 292/3/4 298/3/4
f 297/3/4 296/3/4 298/3/4
f 299/4/4 300/4/4 301/4/4
f 301/4/4 300/4/4 302/4/4
f 299/4/4 301/4/4 303/4/4
f 299/4/4 303/4/4 305/4/4
f 303/4/4 304/4/4 305/4/4
f 305/4/4 304/4/4 306/4/4
f 307/1/4 308/1/4 310/1/4
f 308/2/4 309/2/4 311/2/4
f 310/1/4 308/1/4 311/1/4
f 311/2/4 309/2/4 312/2/4
f 307/1/4 310/1/4 313/1/4
f 312/2/4 309/2/4 315/2/4
f 313/1/4 314/1/4 316/1/4
f 307/1/4 313/1/4 316/1/4
f 314/2/4 315/2/4 317/2/4
f 316/1/4 314/1/4 317/1/4
f 315/2/4 309/2/4 318/2/4
f 317/2/4 315/2/4 318/2/4
f 321/4/5 320/4/5 319/4/5
f 322/4/5 320/4/5 321/4/5
f 325/4/5 324/4/5 323/4/5
f 326/4/5 324/4/5 325/4/5
f 329/4/5 328/4/5 327/4/5
f 330/4/5 328/4/5 329/4/5
f 336/1/5 332/1/5 331/1/5
f 337/2/5 333/2/5 332/2/5
f 337/1/5 332/1/5 336/1/5
f 338/1/5 334/1/5 333/1/5
f 338/2/5 333/2/5 337/2/5
f 339/1/5 334/1/5 338/1/5
f 341/1/5 337/1/5 336/1/5
f 341/1/5 340/1/5 339/1/5
f 341/1/5 339/1/5 338/1/5
f 341/1/5 338/1/5 337/1/5
f 341/1/5 336/1/5 335/1/5
f 342/1/5 340/1/5 341/1/5
f 343/1/5 340/1/5 342/1/5
f 344/1/5 340/1/5 343/1/5
f 346/1/5 343/1/5 342/1/5
f 347/1/5 343/1/5 346/1/5
f 349/1/5 346/1/5 345/1/5
f 349/1/5 348/1/5 347/1/5
f 349/1/5 347/1/5 346/1/5
f 350/1/5 348/1/5 349/1/5
f 351/2/5 350/2/5 349/2/5
f 352/2/5 350/2/5 351/2/5
f 353/1/5 348/1/5 350/1/5
f 353/2/5 350/2/5 352/2/5
f 354/1/5 348/1/5 353/1/5
f 355/1/5 348/1/5 354/1/5
f 357/1/5 353/1/5 352/1/5
f 357/1/5 354/1/5 353/1/5
f 358/1/5 354/1/5 357/1/5
f 360/1/5 357/1/5 356/1/5
f 360/1/5 359/1/5 358/1/5
f 360/1/5 358/1/5 357/1/5
f 361/1/5 359/1/5 360/1/5
f 364/1/5 363/1/5 362/1/5
f 365/1/5 363/1/5 364/1/5
f 366/2/5 365/2/5 364/2/5
f 367/2/5 365/2/5 366/2/5
f 368/1/5 367/1/5 366/1/5
f 369/1/5 367/1/5 368/1/5
f 370/2/5 369/2/5 368/2/5
f 371/2/5 369/2/5 370/2/5
f 372/4/6 373/4/6 374/4/6
f 374/4/6 373/4/6 375/4/6
f 376/4/6 377/4/6 378/4/6
f 378/4/6 377/4/6 379/4/6
f 380/4/6 381/4/6 382/4/6
f 382/4/6 381/4/6 383/4/6
f 384/1/6 385/1/6 387/1/6
f 385/1/6 386/1/6 387/1/6
f 387/1/6 386/1/6 388/1/6
f 388/1/6 386/1/6 389/1/6
f 389/1/6 386/1/6 390/1/6
f 389/2/6 390/2/6 391/2/6
f 390/1/6 386/1/6 392/1/6
f 391/2/6 390/2/6 392/2/6
f 391/1/6 392/1/6 393/1/6
f 392/1/6 386/1/6 394/1/6
f 393/1/6 392/1/6 394/1/6
f 395/1/6 396/1/6 397/1/6
f 397/1/6 396/1/6 398/1/6
f 398/1/6 396/1/6 399/1/6
f 399/1/6 396/1/6 400/1/6
f 398/1/6 399/1/6 402/1/6
f 402/1/6 399/1/6 403/1/6
f 401/2/6 402/2/6 405/2/6
f 403/2/6 404/2/6 405/2/6
f 402/2/6 403/2/6 405/2/6
f 405/2/6 404/2/6 406/2/6
f 405/1/6 406/1/6 407/1/6
f 407/1/6 406/1/6 408/1/6
f 407/2/6 408/2/6 409/2/6
f 409/2/6 408/2/6 410/2/6
f 411/3/6 412/3/6 415/3/6
f 415/3/6 412/3/6 416/3/6
f 413/3/6 414/3/6 417/3/6
f 417/3/6 414/3/6 418/3/6
